<svg width="24" height="24" viewBox="0 0 24 24" fill="none" xmlns="http://www.w3.org/2000/svg">
<path d="M8.67576 7.33393C8.67558 7.68753 8.53446 8.02658 8.28343 8.27649C8.03241 8.5264 7.69204 8.6667 7.33721 8.66652C6.98238 8.66634 6.64216 8.5257 6.39138 8.27554C6.14061 8.02539 5.99982 7.6862 6 7.33259C6.00018 6.97899 6.1413 6.63994 6.39233 6.39003C6.64336 6.14012 6.98372 5.99982 7.33855 6C7.69338 6.00018 8.0336 6.14081 8.28438 6.39097C8.53515 6.64113 8.67594 6.98032 8.67576 7.33393ZM8.7159 9.6538H6.04014V18H8.7159V9.6538ZM12.9436 9.6538H10.2812V18H12.9168V13.6202C12.9168 11.1804 16.1077 10.9537 16.1077 13.6202V18H18.75V12.7136C18.75 8.60052 14.0273 8.75385 12.9168 10.7737L12.9436 9.6538Z" fill="black"/>
</svg>
