<svg width="24" height="24" viewBox="0 0 24 24" fill="none" xmlns="http://www.w3.org/2000/svg">
<path d="M19.6217 7.24219C19.0491 7.49546 18.4419 7.66179 17.8202 7.73569C18.4755 7.34376 18.966 6.72695 19.2002 6.00019C18.5852 6.36619 17.911 6.62269 17.2082 6.76144C16.7362 6.25637 16.1105 5.92141 15.4284 5.80863C14.7464 5.69584 14.0462 5.81156 13.4367 6.13778C12.8272 6.464 12.3425 6.98245 12.0581 7.61253C11.7736 8.24262 11.7053 8.94902 11.8637 9.62194C10.6166 9.55943 9.39647 9.23533 8.28269 8.67069C7.1689 8.10604 6.18632 7.31347 5.39872 6.34444C5.11994 6.82328 4.97344 7.36761 4.97422 7.92169C4.97422 9.00919 5.52772 9.96994 6.36922 10.5324C5.87123 10.5168 5.3842 10.3823 4.94872 10.1402V10.1792C4.94887 10.9035 5.1995 11.6054 5.65811 12.166C6.11672 12.7266 6.75508 13.1113 7.46497 13.2549C7.00268 13.3802 6.51795 13.3987 6.04747 13.3089C6.24762 13.9324 6.63773 14.4776 7.16317 14.8683C7.68861 15.259 8.32307 15.4755 8.97772 15.4877C8.32708 15.9987 7.58211 16.3764 6.78538 16.5993C5.98866 16.8222 5.15582 16.8859 4.33447 16.7867C5.76825 17.7088 7.4373 18.1983 9.14197 18.1967C14.9117 18.1967 18.067 13.4169 18.067 9.27169C18.067 9.13669 18.0632 9.00019 18.0572 8.86669C18.6714 8.42281 19.2014 7.87295 19.6225 7.24294L19.6217 7.24219Z" fill="black"/>
</svg>
